<?xml version="1.0" standalone="no"?>
<!DOCTYPE svg PUBLIC "-//W3C//DTD SVG 20010904//EN"
 "http://www.w3.org/TR/2001/REC-SVG-20010904/DTD/svg10.dtd">
<svg version="1.0" xmlns="http://www.w3.org/2000/svg"
 width="460.000000pt" height="460.000000pt" viewBox="0 0 460.000000 460.000000"
 preserveAspectRatio="xMidYMid meet">
<metadata>
Created by potrace 1.14, written by Peter Selinger 2001-2017
</metadata>
<g transform="translate(0.000000,460.000000) scale(0.100000,-0.100000)"
fill="#000000" stroke="none">
<path d="M0 3438 c0 -1089 1 -1163 17 -1181 17 -18 17 -19 0 -32 -15 -11 -17
-36 -17 -258 0 -235 1 -246 19 -252 11 -3 23 -15 26 -25 8 -24 -11 -60 -30
-60 -13 0 -15 -106 -15 -815 l0 -815 576 0 576 0 -5 26 c-2 14 2 31 10 40 17
16 33 18 33 4 0 -6 9 -6 25 0 34 13 127 -27 119 -52 -5 -17 77 -18 1630 -18
l1636 0 0 1663 c0 1421 -2 1668 -14 1693 -15 29 -11 84 5 84 5 0 9 251 9 580
l0 580 -880 0 c-674 0 -885 -3 -900 -12 -15 -10 -26 -10 -53 0 -20 7 -88 12
-170 12 -126 0 -137 -2 -147 -20 -7 -13 -21 -20 -38 -20 -16 0 -34 8 -42 20
-13 18 -26 20 -137 20 l-122 0 -28 -40 c-15 -22 -35 -42 -44 -45 -39 -13 -76
31 -57 68 8 16 -42 17 -987 17 l-995 0 0 -1162z m1763 1033 c20 -8 24 -16 23
-41 -1 -26 -8 -35 -34 -45 -30 -13 -32 -13 -32 5 0 11 -4 20 -10 20 -18 0 -11
58 8 63 9 3 18 5 19 6 1 0 13 -3 26 -8z m2135 -97 c23 -7 28 -34 15 -82 -5
-20 -11 -23 -32 -19 -21 4 -29 1 -36 -16 -13 -30 -56 -34 -80 -7 -16 17 -17
23 -5 45 7 13 22 25 34 27 15 2 22 11 24 31 3 22 8 27 30 27 15 0 37 -3 50 -6z
m-1324 -40 c21 -21 20 -47 -3 -68 -39 -36 -92 9 -69 58 13 30 48 35 72 10z
m-176 -216 c31 -31 -6 -96 -47 -83 -39 12 -49 65 -17 87 17 12 51 9 64 -4z
m1240 -10 c22 -22 15 -67 -12 -80 -31 -14 -53 -5 -68 27 -9 21 -8 28 7 45 20
22 55 26 73 8z m-2161 -69 c74 -23 253 -107 293 -138 l24 -19 -39 -7 c-227
-38 -440 -204 -552 -430 -206 -415 -188 -982 49 -1553 l30 -73 402 3 c434 3
444 4 495 59 65 68 76 147 28 183 -27 20 -45 21 -280 27 -289 7 -322 14 -393
84 -78 79 -80 204 -3 363 78 162 220 268 392 291 86 12 767 15 767 4 0 -4 -19
-62 -41 -130 l-42 -123 -355 0 c-340 0 -358 -1 -399 -21 -24 -11 -52 -32 -63
-46 -27 -34 -44 -95 -36 -127 12 -49 45 -56 274 -56 227 0 287 -7 368 -44 76
-35 108 -86 112 -181 7 -129 -49 -266 -152 -373 -67 -71 -113 -101 -202 -134
-55 -20 -81 -22 -397 -27 l-337 -6 37 -60 c205 -332 525 -622 834 -756 159
-69 232 -84 409 -84 204 0 286 24 438 127 l74 50 -5 -29 c-3 -15 -8 -46 -12
-68 -9 -61 -53 -191 -88 -264 -41 -83 -141 -186 -219 -223 -81 -40 -148 -52
-253 -45 -172 10 -405 121 -595 283 -61 52 -251 235 -290 280 -110 126 -182
220 -315 414 -109 160 -299 519 -382 720 -19 47 -41 99 -48 116 -51 112 -161
485 -194 659 -12 61 -26 131 -31 156 -5 25 -14 122 -21 215 -41 580 133 957
466 1008 56 8 184 -4 252 -25z m1053 -52 c-1 -6 -14 -27 -29 -45 l-29 -34 -16
23 c-9 13 -16 19 -16 14 0 -5 -5 -4 -12 3 -9 9 -5 17 15 36 17 16 27 36 27 53
l1 28 29 -33 c17 -18 30 -38 30 -45z m1100 -7 c0 -11 -5 -20 -11 -20 -6 0 -9
-9 -6 -20 6 -25 -36 -75 -56 -67 -23 9 -29 53 -13 92 13 31 19 35 50 35 29 0
36 -4 36 -20z m-1555 -107 c41 4 75 4 75 2 0 -3 -16 -37 -35 -75 l-35 -69 31
-71 c17 -40 28 -74 25 -77 -2 -3 -37 2 -77 11 -69 16 -73 16 -93 -2 -68 -62
-91 -82 -97 -82 -3 0 -9 26 -13 57 -11 94 -14 100 -82 144 -35 23 -64 43 -64
45 0 2 31 19 69 39 l69 34 18 82 17 82 59 -63 58 -63 75 6z m911 0 c-3 -25 -8
-48 -10 -50 -2 -3 -25 -1 -51 3 l-47 7 7 36 c9 50 11 51 62 51 l46 0 -7 -47z
m718 -18 c20 -22 22 -29 12 -50 -14 -30 -52 -41 -75 -22 -9 8 -25 17 -36 21
-18 7 -17 11 19 42 22 19 43 34 48 34 5 0 20 -11 32 -25z m-1094 -91 c0 -15
-30 -74 -38 -74 -3 0 -25 9 -48 20 l-41 20 15 35 c12 25 23 35 38 35 13 0 26
5 30 11 7 12 43 -26 44 -47z m392 -71 c23 -20 23 -52 1 -69 -27 -20 -51 -17
-69 11 -15 23 -15 27 0 50 19 29 42 32 68 8z m383 -29 c43 -52 39 -59 -29 -63
-40 -2 -45 1 -53 26 -12 34 5 83 28 83 9 0 34 -21 54 -46z m369 -90 c19 -7 21
-55 4 -72 -7 -7 -24 -12 -40 -12 -36 0 -53 29 -36 64 11 26 38 33 72 20z
m-3442 -341 c34 -31 17 -83 -27 -83 -60 0 -60 98 -1 100 5 0 18 -7 28 -17z
m127 -12 c20 -13 17 -62 -5 -78 -19 -14 -54 -8 -66 11 -29 43 26 95 71 67z
m-151 -233 c35 -35 -14 -102 -57 -79 -45 25 -33 91 17 91 16 0 33 -5 40 -12z
m156 -14 c20 -8 50 -69 41 -83 -3 -6 -17 -11 -31 -11 -13 0 -33 -5 -44 -12
-26 -16 -37 -3 -17 20 10 10 17 32 17 49 0 40 7 47 34 37z m3433 -157 c63 -28
96 -78 101 -152 3 -52 -1 -74 -29 -141 -30 -73 -42 -88 -163 -209 -72 -71
-171 -166 -220 -210 -129 -116 -124 -111 -242 -221 -60 -55 -161 -149 -224
-207 l-115 -106 -169 -1 -169 0 29 26 c16 15 52 47 79 73 84 77 165 151 280
256 60 55 116 107 125 115 9 8 38 35 66 59 27 24 81 74 120 110 122 115 256
236 276 249 24 17 61 90 54 108 -4 11 -77 14 -420 16 l-414 3 39 115 c22 63
41 121 44 128 4 11 92 13 457 10 414 -3 457 -5 495 -21z m-3343 -205 c2 -4 2
-27 -1 -50 -6 -42 -6 -42 -49 -42 -23 0 -45 4 -48 8 -2 4 -2 27 1 50 6 42 6
42 49 42 23 0 45 -4 48 -8z m-196 -206 c10 -11 -50 -84 -73 -88 -22 -5 -24 -2
-21 36 3 59 12 69 54 63 19 -4 37 -9 40 -11z m-30 -221 c14 -29 -2 -62 -42
-88 -26 -17 -38 -12 -56 22 -10 19 -10 25 1 32 8 5 17 9 22 9 4 0 13 11 19 25
14 32 42 32 56 0z m-210 -21 c30 -21 29 -59 -3 -80 -25 -16 -27 -16 -50 6 -30
28 -31 44 -5 70 24 24 29 24 58 4z m722 -48 c0 -25 -4 -47 -9 -51 -6 -3 -28
-3 -50 1 -39 6 -41 8 -41 44 0 47 4 50 57 50 l43 0 0 -44z m-268 -123 c22 -20
23 -46 2 -67 -9 -10 -13 -24 -9 -36 7 -21 -8 -26 -40 -14 -13 5 -14 9 -3 15
10 6 8 13 -10 29 -28 26 -28 55 0 74 28 20 37 20 60 -1z m120 -18 c9 -19 8
-29 -6 -50 -18 -28 -34 -31 -58 -12 -21 17 -27 38 -17 65 12 32 65 31 81 -3z
m-180 -115 l26 -39 -27 3 c-41 5 -51 14 -51 47 0 41 21 37 52 -11z m142 -152
c12 -47 7 -78 -13 -78 -10 0 -33 -3 -50 -6 l-31 -6 0 50 c0 48 2 51 28 55 54
8 60 7 66 -15z m-404 -12 c15 -19 9 -56 -11 -69 -22 -14 -66 -1 -71 21 -9 34
9 62 40 62 16 0 35 -7 42 -14z m256 -99 c1 -1 4 -14 7 -28 8 -32 -16 -60 -35
-41 -7 7 -22 12 -34 12 -34 0 -39 18 -13 46 18 19 30 23 49 19 14 -4 25 -7 26
-8z m3335 -208 c29 -29 11 -78 -29 -79 -46 0 -69 52 -36 84 21 21 40 20 65 -5z
m223 -15 c22 -21 20 -47 -5 -70 -19 -17 -23 -17 -47 -3 -33 18 -41 58 -16 76
24 17 49 16 68 -3z m-3255 -78 c17 -20 10 -67 -11 -79 -27 -17 -68 7 -68 39 0
44 54 71 79 40z m2986 -47 c0 -31 -3 -34 -30 -37 -34 -3 -52 6 -55 28 -5 33 1
47 23 57 33 16 62 -6 62 -48z m-3614 -69 c12 -7 19 -21 19 -38 0 -52 -43 -69
-79 -31 -21 23 -18 46 7 67 19 15 28 15 53 2z m3743 -76 c21 -20 20 -43 -1
-66 -20 -22 -46 -23 -67 -2 -31 30 -9 84 34 84 10 0 26 -7 34 -16z m289 7 c12
-2 8 -36 -6 -56 -12 -15 -19 -16 -46 -7 -17 6 -39 19 -48 28 -16 15 -16 17 1
30 15 10 46 12 99 5z m-2835 -492 c12 -5 22 -11 22 -14 0 -9 -32 -85 -36 -85
-2 0 -22 7 -44 16 -44 18 -47 26 -24 73 17 33 19 33 82 10z m451 -166 c15 -52
15 -51 -26 -62 -52 -15 -49 -16 -66 33 l-15 44 32 10 c55 18 64 15 75 -25z
m2113 0 c33 -30 20 -83 -21 -83 -52 0 -71 55 -29 84 28 20 27 20 50 -1z
m-3476 -158 c15 -23 15 -27 0 -50 -20 -31 -20 -32 4 -38 11 -3 20 -13 20 -24
-1 -36 -44 -69 -70 -53 -10 6 -9 13 4 31 21 31 22 57 1 39 -22 -18 -65 -4 -65
21 0 41 42 99 71 99 10 0 26 -11 35 -25z"/>
</g>
</svg>
